HIERARCHY
ROOT root
{
	OFFSET 0.000000 0.000000 0.000000
	CHANNELS 6 Xposition Yposition Zposition Zrotation Yrotation Xrotation
	JOINT lhip
	{
		OFFSET 0.058581 -0.082280 -0.017664
		CHANNELS 3 Zrotation Yrotation Xrotation
		JOINT lknee
		{
			OFFSET 0.043451 -0.386469 0.008037
			CHANNELS 3 Zrotation Yrotation Xrotation
			JOINT lankle
			{
				OFFSET -0.014790 -0.426874 -0.037428
				CHANNELS 3 Zrotation Yrotation Xrotation
				JOINT ltoe
				{
					OFFSET 0.041054 -0.060286 0.122042
					CHANNELS 3 Zrotation Yrotation Xrotation
					End Site
					{
						OFFSET 0.000000 0.000000 0.000000
					}
				}
			}
		}
	}
	JOINT rhip
	{
		OFFSET -0.060310 -0.090513 -0.013543
		CHANNELS 3 Zrotation Yrotation Xrotation
		JOINT rknee
		{
			OFFSET -0.043257 -0.383688 -0.004843
			CHANNELS 3 Zrotation Yrotation Xrotation
			JOINT rankle
			{
				OFFSET 0.019056 -0.420046 -0.034562
				CHANNELS 3 Zrotation Yrotation Xrotation
				JOINT rtoe
				{
					OFFSET -0.034840 -0.062106 0.130323
					CHANNELS 3 Zrotation Yrotation Xrotation
					End Site
					{
						OFFSET 0.000000 0.000000 0.000000
					}
				}
			}
		}
	}
	JOINT lowerback
	{
		OFFSET 0.004439 0.124404 -0.038385
		CHANNELS 3 Zrotation Yrotation Xrotation
		JOINT upperback
		{
			OFFSET 0.004488 0.137956 0.026820
			CHANNELS 3 Zrotation Yrotation Xrotation
			JOINT chest
			{
				OFFSET -0.002265 0.056032 0.002855
				CHANNELS 3 Zrotation Yrotation Xrotation
				JOINT lowerneck
				{
					OFFSET -0.013390 0.211636 -0.033468
					CHANNELS 3 Zrotation Yrotation Xrotation
					JOINT upperneck
					{
						OFFSET 0.010113 0.088937 0.050410
						CHANNELS 3 Zrotation Yrotation Xrotation
						End Site
						{
							OFFSET 0.000000 0.000000 0.000000
						}
					}
				}
				JOINT lclavicle
				{
					OFFSET 0.071702 0.114000 -0.018898
					CHANNELS 3 Zrotation Yrotation Xrotation
					JOINT lshoulder
					{
						OFFSET 0.122921 0.045205 -0.019046
						CHANNELS 3 Zrotation Yrotation Xrotation
						JOINT lelbow
						{
							OFFSET 0.255332 -0.015649 -0.022946
							CHANNELS 3 Zrotation Yrotation Xrotation
							JOINT lwrist
							{
								OFFSET 0.265709 0.012698 -0.007375
								CHANNELS 3 Zrotation Yrotation Xrotation
								End Site
								{
									OFFSET 0.000000 0.000000 0.000000
								}
							}
						}
					}
				}
				JOINT rclavicle
				{
					OFFSET -0.082954 0.112472 -0.023707
					CHANNELS 3 Zrotation Yrotation Xrotation
					JOINT rshoulder
					{
						OFFSET -0.113228 0.046853 -0.008472
						CHANNELS 3 Zrotation Yrotation Xrotation
						JOINT relbow
						{
							OFFSET -0.260127 -0.014369 -0.031269
							CHANNELS 3 Zrotation Yrotation Xrotation
							JOINT rwrist
							{
								OFFSET -0.269108 0.006794 -0.006027
								CHANNELS 3 Zrotation Yrotation Xrotation
								End Site
								{
									OFFSET 0.000000 0.000000 0.000000
								}
							}
						}
					}
				}
			}
		}
	}
}
MOTION
Frames: 16
Frame Time: 0.033333
0.549823 0.811234 0.790912 -68.057479 1.564363 90.235965 5.827554 -10.632086 -47.830713 -10.308700 2.110021 82.241249 7.321209 8.990753 -40.465338 0.000000 -0.000000 0.000000 -0.492678 -0.096086 -40.871422 -4.668756 -12.067037 84.670388 4.796594 -11.922424 -40.510843 0.000000 -0.000000 0.000000 -0.202594 1.615645 34.618340 1.105815 -0.255855 -10.493979 1.613237 1.180800 1.266805 -1.915305 -0.124526 5.538938 3.903118 7.883312 -19.684470 -24.123192 -0.734439 6.628413 -49.614004 0.389055 4.012995 -5.158873 -62.141876 23.368748 4.888014 -1.109213 -11.787463 19.528800 9.400556 6.491131 55.813830 7.562297 8.456433 -11.382443 62.808047 5.602099 -5.215133 3.808443 -6.768315 
0.537261 0.811435 0.829809 -63.412211 1.977948 88.717585 3.640949 -9.832024 -41.467226 -11.572309 -2.668543 75.730277 6.998676 7.360142 -35.843513 0.000000 -0.000000 0.000000 0.628797 -3.286200 -34.139716 -4.351862 -12.542291 77.518463 4.985456 -11.474326 -35.529388 0.000000 -0.000000 0.000000 1.493357 2.912515 32.021706 0.314447 1.363123 -10.282122 1.774246 2.186967 2.075106 -2.326035 3.277161 2.992510 2.555982 10.935185 -18.105284 -20.452781 -1.788086 4.225967 -49.447609 2.559328 7.405863 -20.673623 -66.476035 43.811251 4.494563 -2.600399 -11.309754 14.878431 11.235312 3.678502 54.394878 6.900657 9.544427 -7.197850 69.576514 10.506469 -0.848879 3.719240 -8.757075 
0.522396 0.808201 0.888362 -57.788826 1.406662 87.376136 2.149976 -9.423635 -33.397654 -12.983225 -6.877415 64.660441 4.979025 3.525872 -26.052842 0.000000 -0.000000 0.000000 -0.911237 -5.753645 -25.604581 -2.640297 -14.544047 65.928735 4.765616 -11.535510 -24.073528 0.000000 -0.000000 0.000000 2.364369 5.308458 27.845344 -0.171511 2.580588 -9.836547 1.875923 2.483617 3.493960 -3.056320 6.893802 -0.041269 1.742201 12.253033 -15.126391 -16.691482 -2.687884 1.980848 -50.756103 2.694286 11.110611 -29.401719 -66.915154 52.234049 5.915743 -5.036174 -11.073892 10.753871 10.339153 -0.562671 52.836293 4.753641 11.787471 -3.147165 73.009541 12.595640 0.270521 5.288424 -9.494923 
0.507860 0.801549 0.968138 -50.219686 0.919598 87.341704 1.681532 -8.579013 -24.291022 -13.585744 -13.357034 47.841525 0.621503 -2.761046 -9.283912 0.000000 -0.000000 0.000000 -1.836741 -9.337366 -17.017160 -0.786495 -15.544406 49.861072 4.888042 -10.074716 -7.417116 0.000000 -0.000000 0.000000 1.650267 7.239622 20.512347 0.553181 2.621987 -7.204881 2.304106 2.204349 4.926432 -3.036407 9.399438 -2.109321 1.693822 12.802754 -11.748342 -14.939842 -1.442588 0.793265 -53.446320 -0.457311 14.031035 -27.668290 -65.809589 51.381076 6.435866 -6.061568 -13.579075 9.943942 6.822450 -2.558855 53.197584 4.695899 12.942617 -5.778419 71.148173 10.414996 5.513019 6.085223 -10.779784 
0.494803 0.791376 1.061617 -40.440925 0.425877 87.394364 2.206447 -7.320660 -14.173072 -9.383592 -17.946505 23.011601 -14.468173 -7.304245 21.457712 0.000000 -0.000000 0.000000 -1.253116 -10.401978 -7.465567 -2.369466 -17.121572 28.949956 7.533968 -9.067605 19.008804 0.000000 -0.000000 0.000000 0.184233 7.432632 13.634057 1.182124 1.173672 -2.662481 2.902613 1.402953 3.623412 -3.814342 10.322825 -1.757000 2.623635 13.459445 -10.432349 -17.013213 -0.545705 0.540309 -55.472233 -2.801381 16.314971 -18.604198 -64.709297 40.583146 4.863213 -7.699618 -10.838778 12.495017 4.514262 -2.209031 53.511566 3.750090 14.467173 -10.047401 66.353276 4.398964 3.548551 5.323049 -9.612951 
0.490940 0.778293 1.149976 -28.326570 -0.341734 88.095132 0.557959 -4.921455 -9.304434 -4.294693 -12.819338 6.779560 -17.428974 -1.809346 28.998454 0.000000 -0.000000 0.000000 0.110099 -8.623088 0.038414 -2.676085 -13.921927 8.632071 10.109894 -10.106031 41.273205 0.000000 -0.000000 0.000000 -0.260568 5.478320 8.693938 0.713945 -1.395845 -1.540416 2.723260 0.363879 4.080797 -5.225784 9.157685 -2.156489 3.858604 14.829538 -8.649005 -19.399299 -0.535924 1.434358 -57.137594 -4.786914 16.992125 -12.426524 -62.908193 32.664760 4.313344 -8.647874 -9.093818 14.847093 2.079771 -0.761828 54.044949 3.349574 16.073686 -8.909535 62.098159 5.258332 -1.598036 4.692483 -6.907605 
0.494690 0.772552 1.217804 -14.968160 -1.120210 90.668643 -0.303226 -5.919142 -10.851530 -3.596272 -2.589057 4.287685 -11.337228 2.046957 22.559695 0.000000 -0.000000 0.000000 -0.984725 -7.716944 -0.995526 1.416075 -11.877975 6.582231 13.669565 -8.608666 37.100054 0.000000 -0.000000 0.000000 -1.174962 3.251017 2.123077 1.209468 -4.164017 0.535756 1.600383 -0.933405 4.123647 -4.246208 9.409338 -1.994788 3.583133 14.708095 -6.853316 -21.633559 -0.150076 1.126329 -58.244046 -7.138965 18.956969 -10.855112 -60.688392 29.944552 1.484397 -9.008337 -8.483958 17.968396 -0.943001 0.997544 52.349953 3.347001 17.398250 -8.135463 60.714231 7.087271 4.003577 4.684839 -6.925103 
0.498783 0.772186 1.274055 -3.483928 0.096856 89.166445 0.507215 -2.899731 -9.697959 -3.226720 1.500318 7.136060 -8.073248 4.149959 21.584895 0.000000 -0.000000 0.000000 0.721494 -8.362117 -1.438031 2.092846 -10.202965 11.578269 14.662471 -5.606383 37.535877 0.000000 -0.000000 0.000000 0.724882 2.138208 4.641291 1.396187 -4.432869 -1.113233 1.024133 -2.024538 3.036055 -4.602357 9.438515 -0.908525 4.234650 16.473674 -5.773249 -24.141309 -1.845122 0.382376 -58.086555 -7.969314 19.846718 -13.413822 -58.851238 31.670981 0.506759 -8.795168 -7.266287 18.998982 -2.569927 -0.432441 52.223415 -0.910082 17.305416 -6.045491 59.929766 8.413973 4.997925 4.904257 -7.349818 
0.499494 0.772746 1.322385 5.278570 0.979343 86.739112 1.998086 -0.599323 -7.579857 -3.783429 -0.035581 11.158681 -7.956346 3.935493 20.335447 0.000000 -0.000000 0.000000 2.141866 -7.673641 -1.941050 0.700738 -9.817312 17.233786 13.922033 -5.253626 35.787761 0.000000 -0.000000 0.000000 0.370682 1.428603 8.644810 1.657927 -3.705702 -3.832434 1.720080 -2.400623 4.075351 -4.138677 9.330178 -1.804324 5.106207 16.963702 -3.350042 -25.127118 -2.740901 -0.166946 -59.328971 -9.118888 20.260580 -12.659385 -56.751207 30.560429 0.996437 -8.844270 -6.932501 19.403083 -2.906435 -1.322600 53.011171 -2.794382 17.027268 -4.561253 56.910029 7.300928 4.902180 5.185551 -9.156767 
0.501189 0.774276 1.359518 14.229228 0.539186 86.250448 2.532299 -2.659725 -7.057104 -4.534514 -1.276849 13.776655 -8.957193 3.886999 20.197909 0.000000 -0.000000 0.000000 1.573197 -5.845373 -3.667085 -0.104604 -8.135029 19.660848 13.036044 -5.966532 36.103212 0.000000 -0.000000 0.000000 -1.355248 0.977898 7.916043 1.864324 -4.430284 -1.560266 1.635689 -2.700351 4.764414 -4.132724 12.482081 -3.584318 4.499739 17.166449 -1.432634 -24.689147 -3.098516 -0.458820 -59.469668 -10.479623 20.656818 -9.991828 -55.486962 26.002102 2.740362 -8.863141 -7.908144 21.296894 -2.569197 -1.059717 53.992030 -1.274038 18.029208 -8.894022 52.566868 2.135852 3.120175 4.345372 -7.230497 
0.503612 0.776206 1.385769 22.921334 0.014406 86.207203 2.587779 -4.178139 -6.546932 -4.193116 -3.000392 14.430052 -10.076138 4.802849 21.651647 0.000000 -0.000000 0.000000 0.287452 -5.013139 -5.052097 -0.177834 -6.360131 19.586564 12.722666 -5.872446 33.608795 0.000000 -0.000000 0.000000 -2.473856 0.393962 6.975218 1.739543 -5.242652 0.997052 1.216321 -2.811066 4.611420 -3.346618 12.394278 -6.616912 3.906053 13.732491 -2.203184 -24.373329 -2.508345 -1.794936 -57.923287 -10.884780 21.137502 -7.931704 -54.697294 23.386263 2.673478 -9.143753 -8.623298 23.026557 -1.641135 -1.400317 53.739074 0.083328 19.203325 -9.962774 48.817644 -0.054409 2.489024 4.435919 -5.829284 
0.505816 0.777358 1.401958 30.583179 0.026446 86.464294 3.231503 -4.160911 -5.939748 -3.476998 -4.711812 13.434540 -10.831492 5.303745 22.937787 0.000000 -0.000000 0.000000 -0.508772 -4.434017 -6.339812 -0.737106 -5.751921 18.738481 12.309087 -6.264924 31.517869 0.000000 -0.000000 0.000000 -2.741984 0.610851 6.804607 1.778284 -4.921646 1.154697 1.237563 -2.830213 3.474246 -2.782447 12.739846 -3.224869 4.601985 14.185358 -1.427173 -25.051665 -2.922045 -0.809118 -54.672380 -11.021286 19.965467 -6.984034 -54.382858 22.488844 1.995756 -9.154760 -6.925432 23.338234 -1.434295 -1.209227 53.039156 -0.430527 18.646443 -9.408922 47.500837 0.403288 2.874855 4.334549 -5.403080 
0.509519 0.777360 1.406568 37.023279 0.370432 86.640488 4.104751 -2.608071 -5.212149 -2.854183 -4.931143 12.397267 -10.090716 5.843969 22.001354 0.000000 -0.000000 0.000000 -1.011007 -4.082022 -7.574508 -1.264555 -4.869151 18.509255 12.203612 -5.890869 30.980042 0.000000 -0.000000 0.000000 -2.131256 0.765031 7.145932 1.321345 -3.915207 -0.613740 1.140130 -2.282386 3.334981 -2.929990 11.660747 -1.590517 5.760746 14.155343 -1.394718 -24.502720 -3.111423 -0.342585 -52.120038 -10.736645 18.081688 -6.886684 -53.559998 21.226220 2.618694 -9.053378 -5.925644 22.640589 -1.351486 -0.475155 52.425478 -1.156779 17.359001 -7.774851 47.979720 1.256651 1.862800 4.459390 -5.968857 
0.512640 0.777882 1.400065 44.015495 0.555483 86.320721 4.723043 -1.330960 -4.622115 -2.669598 -4.107743 12.220648 -9.636396 7.219126 22.225809 0.000000 -0.000000 0.000000 -1.632027 -4.832451 -7.811207 -1.526379 -4.142967 18.328377 11.820824 -5.759691 29.465241 0.000000 -0.000000 0.000000 -2.048078 0.497070 7.787789 1.123144 -3.612044 -1.488871 1.074130 -1.901196 4.043101 -2.767009 9.505797 -1.648259 7.170698 10.997426 -0.003021 -23.404651 -2.832924 -1.223583 -49.583420 -10.740755 16.717254 -4.939826 -53.225058 16.891278 3.894278 -8.780115 -5.857984 22.079626 -0.712335 -0.878153 50.688715 -1.464090 17.153090 -6.713608 49.367350 1.499703 2.030271 4.435550 -6.018598 
0.516551 0.778949 1.383030 50.680700 0.744852 86.705293 5.237161 -0.374286 -4.955024 -3.089078 -2.994875 12.500135 -9.734974 7.845716 22.618436 0.000000 -0.000000 0.000000 -2.084377 -5.757827 -8.673791 -1.263119 -3.513893 18.246921 12.064713 -6.005274 29.866756 0.000000 -0.000000 0.000000 -2.030549 0.395950 7.168470 1.095996 -3.743895 -0.628624 1.235874 -1.689554 3.564558 -3.059515 9.504783 -2.660062 6.375145 12.514030 -1.564555 -23.184363 -2.243620 -2.053924 -46.292381 -10.458053 14.649229 -2.504395 -53.821903 12.966089 4.842204 -8.590743 -5.002479 21.502152 -0.356121 -0.829304 48.316849 -1.134060 17.134892 -6.795804 50.839695 0.752654 3.948624 4.020494 -6.447136 
0.519679 0.779567 1.355756 57.315784 1.048764 87.001286 5.434050 -0.187781 -4.613318 -3.605155 -3.395975 11.732701 -9.849428 7.776396 22.725248 0.000000 -0.000000 0.000000 -2.156395 -5.362647 -8.801695 -0.573394 -3.467636 17.249165 12.728015 -5.912123 31.163966 0.000000 -0.000000 0.000000 -1.780749 0.294617 6.544788 0.985284 -3.650371 0.573178 0.962544 -1.814147 3.516115 -3.259560 8.141675 -3.330450 6.341448 11.246589 -2.304864 -22.432288 -2.040979 -2.665850 -43.130126 -10.820265 12.791000 2.347897 -54.501435 7.132553 4.877030 -8.476858 -3.557031 21.559572 0.107357 -1.770117 45.793250 -0.589521 16.522987 -6.842899 52.016341 -0.104916 4.430128 4.599356 -5.801563 
